<svg width="72" height="73" viewBox="0 0 72 73" fill="none" xmlns="http://www.w3.org/2000/svg">
<path d="M60.1853 56.8716C63.4165 52.9298 65.6639 48.257 66.7373 43.2484C67.8106 38.2398 67.6784 33.0427 66.3518 28.0968C65.0252 23.151 62.5431 18.6019 59.1157 14.8343C55.6883 11.0667 51.4163 8.19143 46.6611 6.45182C41.9059 4.7122 36.8074 4.15938 31.7969 4.8401C26.7864 5.52083 22.0113 7.41508 17.8756 10.3626C13.7399 13.3101 10.3652 17.2242 8.03698 21.7738C5.70878 26.3234 4.49558 31.3745 4.50001 36.5C4.50171 43.951 7.09144 51.1634 11.8148 56.8716L11.7698 56.9104C11.9273 57.102 12.1073 57.2662 12.2693 57.4556C12.4718 57.6906 12.69 57.9118 12.8993 58.14C13.5293 58.8335 14.1773 59.4996 14.8568 60.1247C15.0638 60.3163 15.2775 60.4942 15.4868 60.6767C16.2068 61.3063 16.947 61.904 17.7143 62.4607C17.8133 62.5291 17.9033 62.6181 18.0023 62.6888V62.6614C23.272 66.4213 29.5585 68.4392 36.0023 68.4392C42.446 68.4392 48.7325 66.4213 54.0023 62.6614V62.6888C54.1013 62.6181 54.189 62.5291 54.2903 62.4607C55.0553 61.9017 55.7978 61.3063 56.5178 60.6767C56.727 60.4942 56.9408 60.314 57.1478 60.1247C57.8273 59.4973 58.4753 58.8335 59.1053 58.14C59.3145 57.9118 59.5305 57.6906 59.7353 57.4556C59.895 57.2662 60.0773 57.102 60.2348 56.9081L60.1853 56.8716ZM36 18.25C38.0025 18.25 39.9601 18.8521 41.6252 19.9801C43.2902 21.1081 44.588 22.7114 45.3543 24.5872C46.1206 26.463 46.3211 28.527 45.9305 30.5184C45.5398 32.5097 44.5755 34.3389 43.1595 35.7745C41.7435 37.2102 39.9394 38.1879 37.9753 38.584C36.0112 38.9801 33.9754 38.7768 32.1253 37.9998C30.2752 37.2229 28.6939 35.9071 27.5814 34.2189C26.4688 32.5308 25.875 30.546 25.875 28.5156C25.875 25.793 26.9418 23.1819 28.8406 21.2568C30.7394 19.3316 33.3147 18.25 36 18.25ZM18.0158 56.8716C18.0548 53.8762 19.2554 51.0169 21.3578 48.9122C23.4602 46.8074 26.2954 45.6266 29.25 45.625H42.75C45.7046 45.6266 48.5398 46.8074 50.6422 48.9122C52.7446 51.0169 53.9452 53.8762 53.9843 56.8716C49.0497 61.3801 42.6426 63.8752 36 63.8752C29.3574 63.8752 22.9504 61.3801 18.0158 56.8716Z" fill="black"/>
</svg>
