<svg width="36" height="38" viewBox="0 0 36 38" fill="none" xmlns="http://www.w3.org/2000/svg">
<path d="M1.5 33.25H7.5V14.25H1.5V33.25ZM34.5 15.8333C34.5 14.0917 33.15 12.6667 31.5 12.6667H22.035L23.46 5.43084L23.505 4.92418C23.505 4.27501 23.25 3.67334 22.845 3.24584L21.255 1.58334L11.385 12.0175C10.83 12.5875 10.5 13.3792 10.5 14.25V30.0833C10.5 31.825 11.85 33.25 13.5 33.25H27C28.245 33.25 29.31 32.4583 29.76 31.3183L34.29 20.1558C34.425 19.7917 34.5 19.4117 34.5 19V15.8333Z" fill="black"/>
</svg>
