<svg width="38" height="39" viewBox="0 0 38 39" fill="none" xmlns="http://www.w3.org/2000/svg">
<path d="M33.3767 11.375C33.1031 10.8885 32.7113 10.4831 32.2396 10.1983C31.7678 9.9135 31.2322 9.75905 30.685 9.75001H10.4183L9.49999 6.07751C9.40721 5.72299 9.2002 5.41117 8.91269 5.19281C8.62519 4.97446 8.27411 4.86244 7.91666 4.87501H4.74999C4.33006 4.87501 3.92734 5.04621 3.6304 5.35096C3.33347 5.65571 3.16666 6.06903 3.16666 6.50001C3.16666 6.93098 3.33347 7.34431 3.6304 7.64906C3.92734 7.9538 4.33006 8.12501 4.74999 8.12501H6.71332L11.0833 24.7975C11.1761 25.152 11.3831 25.4639 11.6706 25.6822C11.9581 25.9006 12.3092 26.0126 12.6667 26H26.9167C27.209 25.9991 27.4955 25.9151 27.7442 25.7574C27.9929 25.5996 28.1942 25.3742 28.3258 25.1063L33.5192 14.4463C33.7442 13.962 33.849 13.4281 33.8242 12.8922C33.7993 12.3563 33.6456 11.8351 33.3767 11.375Z" fill="black"/>
<path d="M11.875 34.125C13.1867 34.125 14.25 33.0337 14.25 31.6875C14.25 30.3413 13.1867 29.25 11.875 29.25C10.5633 29.25 9.5 30.3413 9.5 31.6875C9.5 33.0337 10.5633 34.125 11.875 34.125Z" fill="black"/>
<path d="M27.7083 34.125C29.02 34.125 30.0833 33.0337 30.0833 31.6875C30.0833 30.3413 29.02 29.25 27.7083 29.25C26.3967 29.25 25.3333 30.3413 25.3333 31.6875C25.3333 33.0337 26.3967 34.125 27.7083 34.125Z" fill="black"/>
</svg>
